<?xml version="1.0" encoding="UTF-8"?>
<svg version="1.1" viewBox="0 0 2048 851" width="1000" height="416" xmlns="http://www.w3.org/2000/svg">
<path transform="translate(405,127)" d="m0 0h42l27 3 24 5 21 6 22 8 24 11 19 11 19 13 14 11 10 9 8 7 12 12 9 11 10 12 16 24 9 16 12 25 5 13v14l-3 15-5 15-10 19-44 66-4 4-8-5-3-1-2 5-29 43-15 23-8 12-7 11-1 3v7l3 7 9 7 11 7 3 1h9l8-5 50-75 11-17-1-3-8-5 5-9 29-43 10-16 8-13 5-10 2 3 2 24v36l-2 21-4 23-6 24-10 28-14 29-10 17-14 20-11 13-7 8-9 10-7 7-8 7-16 13-19 13-15 9-21 11-25 10-26 8-24 5-22 3-13 1h-33l-29-3-25-5-24-7-24-9-23-11-17-10-16-11-13-10-14-12-23-23-9-11-10-13-10-15-12-21-10-21-10-27-7-27-5-32-1-13v-36l3-28 6-29 8-26 11-26 12-23 12-19 13-17 12-14 14-15 10-9 13-11 18-13 18-11 23-12 24-10 26-8 23-5 21-3zm10 205-18 4-14 6-15 10-9 8-11 14-8 15-5 16-2 13v15l3 17 6 16 8 14 11 12 7 7 14 9 16 7 20 4h18l16-3 16-6 12-7 10-8 10-10 10-15 7-17 3-14 1-9v-9l-3-19-5-15-9-16-11-13-14-11-17-9-17-5-7-1z" fill="#B8110A"/>
<path transform="translate(1073,212)" d="m0 0h44l3 13 15 78v7h2v-98h41v213h-42l-8-38-12-59-1 97h-42z" fill="#B8110A"/>
<path transform="translate(1204,212)" d="m0 0h65l12 2 10 5 9 8 6 12 3 14v121l-2 14-4 13-6 11-8 7-12 5-5 1h-68zm43 37v139h10l5-2 4-5v-123l-3-6-3-2z" fill="#B8110A"/>
<path transform="translate(819,212)" d="m0 0h65l12 2 10 5 6 5 5 8 3 9 1 6v35l-4 12-8 9-7 4 8 4 7 8 4 10 2 9 1 9v21l-2 17-3 13-6 12-9 9-8 4-9 2h-68zm42 33v47l1 1 12-1 4-5 1-6v-29l-3-5-3-2zm0 81v62h8l8-3 4-6 1-5v-33l-2-9-4-5-2-1z" fill="#B8110A"/>
<path transform="translate(1462,212)" d="m0 0h65l12 2 10 5 5 4 5 7 4 12 1 5v34l-3 10-5 8-6 5-5 3 8 4 7 8 4 10 2 10 1 10v17l-2 19-4 15-6 11-8 8-12 5-5 1h-68zm42 33v47l1 1 12-1 3-3 2-9v-28l-3-5-3-2zm0 81v62h8l8-3 4-6 1-6v-29l-2-11-4-6-2-1z" fill="#B8110A"/>
<path transform="translate(1378,210)" d="m0 0h14l15 3 12 6 8 8 6 10 3 9 2 21v99l-1 17-4 15-6 11-5 6-10 7-12 4-5 1h-21l-11-3-10-5-8-7-7-11-4-12-2-14v-117l3-16 7-14 4-5 10-7 10-4zm6 39-6 3-3 7v119l3 7 4 3h6l5-5 2-7v-117l-3-7-2-2z" fill="#B8110A"/>
<path transform="translate(1603,212)" d="m0 0h72l1 2 19 201v10h-40l-2-17-1-17h-26v11l-2 23h-42l2-24 18-187zm34 37-8 107 1 1h18v-14l-8-94z" fill="#B8110A"/>
<path transform="translate(1955,212)" d="m0 0h72l1 1 8 82 11 115 1 15h-40l-1-1-3-32-25-1-2 29-1 5h-42l20-206zm35 37-2 18-6 80v10h19l-1-19-7-82-1-7z" fill="#B8110A"/>
<path transform="translate(960,212)" d="m0 0h72l1 1 19 201v11h-40l-3-30v-4h-26v12l-2 22h-42l7-75 13-134zm35 36-1 3-7 93v13h19l-4-51-5-57z" fill="#B8110A"/>
<path transform="translate(1755,210)" d="m0 0h14l15 3 12 6 5 4 6 9 5 12 3 19v10h-43l-1-5v-10l-2-5-5-3-7 1-3 4v10l5 10 22 22 8 7 8 8 10 13 6 13 3 12v30l-3 14-5 13-6 8-7 6-9 4-9 2h-23l-13-3-10-5-7-6-6-9-4-11-2-12v-35h42l1 33 2 6 4 2h7l4-3 1-3v-18l-3-10-6-10-26-26-8-7-10-13-5-10-3-11v-23l4-16 7-12 9-8 11-5z" fill="#B8110A"/>
<path transform="translate(1831,212)" d="m0 0h93v41h-25v172h-43v-172h-25z" fill="#B8110A"/>
<path transform="translate(960,490)" d="m0 0h8l4 2-1 7-1 1-11 2-3 4-1 4v8l16 1v9h-16v51h-13v-51h-26v51h-13v-51l-8-1-1-1v-7h9v-9l3-9 8-7 6-2h10l3 1v8l-13 3-3 5-1 10 25-1 1-12 4-8 7-6z" fill="#B8110A"/>
<path transform="translate(1860,517)" d="m0 0h14l6 2 18 1-1 7-1 1h-7l1 3v11l-5 8-8 5-4 1-15 1-1 5 6 2 21 2 9 4 3 4 1 8-3 7-5 6-8 4-7 2h-15l-12-4-6-7-1-8 3-5 5-4-2-4-1-1v-8l6-7-6-7-2-4v-11l5-8 8-5zm1 9-5 4-1 2v10l5 5 3 1h8l6-4 2-4-1-9-6-5zm-5 49-4 4-1 5 3 5 4 2 6 1h8l9-3 4-5-1-5-6-3-9-1z" fill="#B8110A"/>
<path transform="translate(828,492)" d="m0 0h52l1 1v11h-40v26h32v11h-32v27h40v11h-54v-86z" fill="#B8110A"/>
<path transform="translate(1436,490)" d="m0 0h12l1 1v29l-1 5 11-7 3-1h11l9 4 6 8 3 10v16l-3 10-5 8-9 6-4 1h-10l-7-3-4-3-3 5h-10zm24 37-8 4-3 3v31l5 4 3 1h9l6-3 5-8 1-6v-11l-3-9-5-5-3-1z" fill="#B8110A"/>
<path transform="translate(1663,490)" d="m0 0h13v52l7-3 9-10 7-8 3-3h14l-18 21-5 5 2 4 15 20 7 10v1h-14l-8-10-12-16-7-3v29h-13z" fill="#B8110A"/>
<path transform="translate(422,400)" d="m0 0h10l8 3 8 7 4 9v13l-5 10-7 6-9 3h-8l-9-3-8-7-4-8-1-9 2-9 6-8 5-4z" fill="#B8110A"/>
<path transform="translate(1012,517)" d="m0 0h15l10 4 7 7 4 9 1 4v15l-4 11-7 8-9 4-4 1h-12l-11-4-7-7-4-8-2-11 1-11 4-10 8-8zm2 10-5 3-4 5-2 6v15l3 8 6 5 3 1h9l6-3 4-5 2-8v-11l-3-9-4-5-4-2z" fill="#B8110A"/>
<path transform="translate(1531,517)" d="m0 0h14l10 4 7 7 4 8 1 4v17l-4 10-7 8-8 4-5 1h-12l-9-3-9-8-4-8-1-4v-18l4-9 7-8 8-4zm1 10-6 4-3 4-2 6v15l4 9 5 4 3 1h9l6-3 4-5 2-7v-13l-3-9-6-5-2-1z" fill="#B8110A"/>
<path transform="translate(1607,517)" d="m0 0h14l10 4 7 7 4 8 1 4v16l-4 11-7 8-9 4-4 1h-12l-9-3-9-8-4-8-1-4v-17l3-9 8-9 8-4zm1 10-6 4-4 6-1 4v15l3 8 6 5 3 1h9l6-3 4-5 2-8v-11l-3-9-4-5-4-2z" fill="#B8110A"/>
<path transform="translate(1227,517)" d="m0 0h13l10 4 6 7 4 11v9l-3 2h-40l4 12 5 5 5 2h9l10-4 3-1 6 5-2 4-8 5-8 2h-13l-10-4-7-6-5-10-1-3v-18l4-9 7-8 7-4zm3 9-6 3-5 6-1 6 18 1h11l2-2-3-8-6-5-3-1z" fill="#B8110A"/>
<path transform="translate(1796,517)" d="m0 0h12l6 3 6 7 2 5 1 46-1 1h-12l-1-40-3-9-4-2h-8l-8 4-2 2-1 45h-13v-61h11l1 6 4-2z" fill="#B8110A"/>
<path transform="translate(1352,517)" d="m0 0h13l10 4 3 2-1 4-4 4-12-4-8 1-3 3v6l4 3 16 6 7 5 2 4v11l-4 7-5 4-9 3h-12l-11-4-3-3 2-5 2-2 6 1 7 3h8l5-3 1-1v-7l-5-3-18-7-6-7-1-10 4-8 6-5z" fill="#B8110A"/>
<path transform="translate(1292,517)" d="m0 0h14l9 4 4 4-5 6-12-4-9 1-3 3v6l5 3 15 6 6 4 3 4 1 9-3 8-8 7-7 2h-13l-10-4-4-3 2-5 2-2 6 1 7 3h8l5-2 2-4-1-5-4-3-16-6-6-4-3-5v-11l4-7 8-5z" fill="#B8110A"/>
<path transform="translate(1135,498)" d="m0 0 2 1 1 19 16 1v9h-17l1 37 1 3 6 1 6-2 4 5v4l-10 4h-10l-6-3-4-6-1-4v-39h-8l-1-1v-7l3-1h7l1-11 2-9z" fill="#B8110A"/>
<path transform="translate(1172,490)" d="m0 0h13v89h-13z" fill="#B8110A"/>
<path transform="translate(1092,517)" d="m0 0h11l2 3-1 9-5 1-9 1-5 4-2 4-1 40h-13v-61h10l1 1 1 7 1 1 7-8z" fill="#B8110A"/>
<path transform="translate(1733,518)" d="m0 0h13v61h-13z" fill="#B8110A"/>
<path transform="translate(1736,491)" d="m0 0h8l4 4 1 5-3 5-4 3-6-1-4-4-1-6z" fill="#B8110A"/>
</svg>
